<svg xmlns="http://www.w3.org/2000/svg" xmlns:xlink="http://www.w3.org/1999/xlink" version="1.1" x="0px" y="0px"
	width="0px" height="0px" viewBox="14 20 55 52"
	enable-background="new 0 0 100 100" xml:space="preserve">
	<g>
		<g>
			<g>
				<path fill="#8d949e"
					d="M27.083,71.564c-0.4,0-0.993-0.121-1.547-0.697c-0.511-0.532-0.755-1.264-0.686-2.059     c0.083-0.953,0.593-1.882,1.332-2.423l1.147-0.833c2.324-1.681,4.52-3.27,6.424-5.416c1.26-1.423,3.139-5.526,2.424-7.114     c-0.081-0.179-0.27-0.599-1.311-0.599c-0.143,0-0.294,0.008-0.456,0.025c-0.286,0.028-0.571,0.063-0.857,0.098     c-0.704,0.086-1.432,0.175-2.177,0.175c-1.625,0-3.192-0.447-4.657-1.328c-2.376-1.463-3.576-3.74-3.576-6.773     c0-2.069,0.74-4.02,2.2-5.796c1.509-1.835,3.827-2.766,6.888-2.766c3.452,0,6.32,1.34,8.525,3.982     c2.161,2.592,3.257,5.601,3.257,8.942c0,5.053-1.707,9.606-5.072,13.532c-2.581,3.005-5.528,5.475-9.011,7.55     c-0.177,0.106-0.365,0.259-0.564,0.416C28.756,70.963,27.997,71.564,27.083,71.564z M34.866,50.422     c1.929,0,2.77,0.967,3.135,1.778c1.272,2.826-1.487,7.834-2.751,9.262c-2.05,2.312-4.332,3.962-6.749,5.71l-1.138,0.826     c-0.27,0.198-0.489,0.611-0.521,0.982c-0.019,0.219,0.026,0.387,0.136,0.5c0.067,0.07,0.104,0.083,0.104,0.083l0.001,0     c0.219,0,0.735-0.408,1.043-0.652c0.274-0.216,0.538-0.42,0.782-0.565c3.294-1.962,6.08-4.296,8.516-7.134     c3.045-3.552,4.59-7.667,4.59-12.229c0-2.901-0.914-5.407-2.792-7.662c-1.833-2.196-4.119-3.263-6.99-3.263     c-2.469,0-4.216,0.666-5.343,2.036c-1.174,1.429-1.745,2.909-1.745,4.526c0,2.324,0.855,3.981,2.615,5.064     c1.156,0.695,2.343,1.036,3.617,1.036c0.623,0,1.26-0.078,1.934-0.16c0.301-0.037,0.602-0.074,0.9-0.104     C34.441,50.434,34.66,50.422,34.866,50.422z">
				</path>
			</g>
		</g>
		<g>
			<g>
				<path fill="#8d949e"
					d="M53.312,70.595c-0.206,0-0.405-0.028-0.592-0.083c-0.757-0.221-1.377-0.857-1.657-1.702     c-0.293-0.88-0.174-1.796,0.317-2.449c0.603-0.801,1.624-1.408,2.612-1.994c0.582-0.346,1.131-0.672,1.5-0.984     c2.175-1.838,3.804-3.824,4.84-5.903c0.847-1.701,1.276-3.261,1.276-4.637c0-0.237-0.073-0.333-0.151-0.402     c-0.128-0.111-0.344-0.172-0.636-0.179c-3.468,0.411-4.244,0.458-4.525,0.458c-1.969,0-3.842-0.666-5.569-1.979     c-1.811-1.379-2.729-3.394-2.729-5.99c0-2.451,0.801-4.532,2.382-6.184c1.592-1.665,3.848-2.51,6.705-2.51     c3.308,0,6.137,1.299,8.408,3.861c2.24,2.531,3.375,5.757,3.375,9.588c0,4.433-1.657,8.723-4.924,12.753     c-2.096,2.586-4.375,4.733-6.773,6.383c-0.128,0.088-0.277,0.197-0.44,0.317C55.79,69.65,54.5,70.595,53.312,70.595z      M60.767,50.262c0.815,0,1.49,0.226,2.003,0.671c0.55,0.481,0.838,1.141,0.838,1.911c0,1.688-0.5,3.547-1.485,5.528     c-1.159,2.325-2.956,4.524-5.34,6.539c-0.496,0.419-1.144,0.804-1.77,1.176c-0.783,0.465-1.67,0.992-2.036,1.478     c-0.075,0.099-0.106,0.349-0.017,0.616c0.07,0.211,0.199,0.377,0.322,0.413l0.029,0.002c0.535,0,1.685-0.842,2.237-1.247     c0.181-0.133,0.347-0.254,0.489-0.352c2.24-1.541,4.377-3.557,6.353-5.994c2.972-3.665,4.478-7.531,4.478-11.494     c0-3.329-0.966-6.108-2.872-8.262c-1.901-2.144-4.162-3.187-6.911-3.187c-2.322,0-4.042,0.619-5.26,1.892     c-1.229,1.285-1.827,2.856-1.827,4.801c0,1.966,0.634,3.405,1.94,4.399c1.389,1.056,2.815,1.57,4.358,1.57     c0.202,0,1.036-0.059,4.353-0.452C60.688,50.264,60.727,50.262,60.767,50.262z">
				</path>
			</g>
		</g>
		<g>
			<g>
				<g>
					<path fill="#8d949e"
						d="M55.929,45.767c-0.048-0.804,0.338-1.668,1.098-1.915c1.125-0.368,1.98,0.693,2.295,1.642      c0.547,1.647-1.162,2.264-2.48,1.723C56.259,46.979,55.965,46.391,55.929,45.767z">
					</path>
				</g>
			</g>
			<g>
				<g>
					<path fill="#8d949e"
						d="M62.038,46.474c-0.089,0-0.181-0.013-0.272-0.04c-0.493-0.145-1.044-0.565-1.683-1.053      c-0.373-0.284-0.996-0.76-1.215-0.83c-1.942-0.425-4.148,0.513-4.626,1.328c-0.28,0.477-0.894,0.635-1.369,0.356      c-0.477-0.28-0.636-0.893-0.356-1.369c0.922-1.569,4.022-2.871,6.792-2.266c0.561,0.123,1.125,0.532,1.987,1.19      c0.343,0.262,0.862,0.658,1.043,0.727c0.502,0.19,0.795,0.754,0.625,1.263C62.823,46.201,62.452,46.474,62.038,46.474z">
					</path>
				</g>
			</g>
			<g>
				<g>
					<path fill="#8d949e"
						d="M58.524,48.823c-0.403,0-0.801-0.038-1.176-0.074c-0.225-0.021-0.445-0.042-0.655-0.053      c-1.054-0.051-1.965-0.335-2.708-0.847c-0.293-0.203-0.519-0.429-0.718-0.629l-0.184-0.182c-0.045-0.043-0.099-0.085-0.153-0.13      c-0.293-0.241-0.785-0.645-0.889-1.32c-0.084-0.546,0.29-1.057,0.835-1.141c0.505-0.076,0.996,0.247,1.122,0.74      c0.048,0.049,0.139,0.124,0.203,0.176c0.094,0.077,0.185,0.153,0.263,0.229l0.219,0.215c0.159,0.159,0.296,0.296,0.438,0.395      c0.43,0.296,0.992,0.463,1.669,0.496c0.24,0.012,0.492,0.036,0.749,0.06c0.641,0.061,1.302,0.125,1.725-0.041      c1.121-0.438,1.909-1.129,1.939-1.393c0.062-0.55,0.566-0.945,1.105-0.882c0.549,0.062,0.944,0.556,0.882,1.105      c-0.194,1.73-2.496,2.759-3.197,3.033C59.516,48.767,59.016,48.823,58.524,48.823z">
					</path>
				</g>
			</g>
			<g>
				<g>
					<path fill="#8d949e"
						d="M53.029,43.967c-0.379,0-0.742-0.217-0.91-0.584c-0.23-0.502-0.009-1.096,0.493-1.325      c0.192-0.088,0.376-0.2,0.562-0.31c0.327-0.194,0.698-0.415,1.125-0.558c0.537-0.182,1.109-0.237,1.614-0.286      c0.228-0.022,0.454-0.043,0.668-0.078c0.541-0.085,1.058-0.072,1.583-0.049c0.171,0.007,0.366,0,0.571-0.004      c1.021-0.028,2.56-0.07,3.316,1.247c0.275,0.479,0.109,1.09-0.37,1.365c-0.479,0.276-1.09,0.11-1.365-0.37      c-0.162-0.281-0.951-0.261-1.527-0.243c-0.255,0.008-0.499,0.013-0.713,0.003c-0.438-0.02-0.827-0.031-1.181,0.026      c-0.252,0.041-0.52,0.067-0.79,0.093c-0.436,0.042-0.847,0.082-1.167,0.19c-0.229,0.077-0.479,0.226-0.744,0.383      c-0.247,0.146-0.495,0.292-0.75,0.408C53.31,43.938,53.168,43.967,53.029,43.967z">
					</path>
				</g>
			</g>
		</g>
		<g>
			<g>
				<g>
					<path fill="#8d949e"
						d="M34.907,45.767c0.046-0.804-0.339-1.668-1.1-1.915c-1.124-0.368-1.979,0.693-2.294,1.642      c-0.548,1.647,1.161,2.264,2.481,1.723C34.575,46.979,34.87,46.391,34.907,45.767z">
					</path>
				</g>
			</g>
			<g>
				<g>
					<path fill="#8d949e"
						d="M28.789,46.475c-0.433,0-0.832-0.283-0.959-0.719c-0.155-0.53,0.148-1.086,0.678-1.241      c0.168-0.065,0.687-0.46,1.029-0.722c0.863-0.659,1.428-1.068,1.989-1.191c2.772-0.604,5.871,0.696,6.793,2.266      c0.28,0.476,0.121,1.089-0.356,1.369c-0.475,0.279-1.088,0.121-1.369-0.356c-0.479-0.815-2.689-1.752-4.641-1.324      c-0.207,0.066-0.831,0.542-1.204,0.827c-0.638,0.486-1.188,0.907-1.68,1.051C28.976,46.462,28.882,46.475,28.789,46.475z">
					</path>
				</g>
			</g>
			<g>
				<g>
					<path fill="#8d949e"
						d="M32.312,48.823c-0.492,0-0.993-0.057-1.47-0.244c-0.701-0.274-3-1.303-3.196-3.032      c-0.062-0.549,0.333-1.044,0.881-1.106c0.544-0.064,1.044,0.332,1.106,0.881c0.03,0.265,0.818,0.956,1.938,1.394      c0.423,0.165,1.085,0.102,1.727,0.041c0.256-0.024,0.507-0.048,0.746-0.06c0.678-0.032,1.24-0.199,1.672-0.497      c0.14-0.097,0.276-0.233,0.434-0.392l0.221-0.218c0.079-0.076,0.17-0.152,0.265-0.229c0.064-0.053,0.156-0.128,0.204-0.177      c0.126-0.494,0.608-0.821,1.124-0.738c0.545,0.085,0.918,0.597,0.833,1.143c-0.105,0.673-0.597,1.076-0.89,1.317      c-0.054,0.044-0.107,0.087-0.153,0.13l-0.186,0.183c-0.198,0.199-0.423,0.425-0.715,0.626c-0.746,0.513-1.657,0.798-2.711,0.848      c-0.208,0.01-0.428,0.031-0.652,0.053C33.113,48.785,32.715,48.823,32.312,48.823z">
					</path>
				</g>
			</g>
			<g>
				<g>
					<path fill="#8d949e"
						d="M37.807,43.967c-0.139,0-0.281-0.029-0.416-0.091c-0.256-0.117-0.503-0.261-0.75-0.408      c-0.266-0.158-0.517-0.307-0.744-0.383c-0.322-0.109-0.733-0.149-1.169-0.191c-0.27-0.026-0.537-0.052-0.791-0.093      c-0.353-0.056-0.742-0.044-1.178-0.025c-0.217,0.01-0.459,0.003-0.715-0.003c-0.577-0.017-1.366-0.038-1.526,0.243      c-0.274,0.479-0.886,0.646-1.365,0.371c-0.479-0.274-0.645-0.886-0.371-1.365c0.755-1.318,2.295-1.276,3.316-1.248      c0.204,0.005,0.398,0.012,0.573,0.004c0.524-0.024,1.041-0.039,1.581,0.049c0.215,0.034,0.44,0.055,0.668,0.077      c0.505,0.049,1.077,0.104,1.617,0.287c0.425,0.143,0.796,0.363,1.123,0.557c0.186,0.11,0.371,0.222,0.563,0.31      c0.502,0.229,0.723,0.823,0.493,1.325C38.549,43.75,38.186,43.967,37.807,43.967z">
					</path>
				</g>
			</g>
		</g>
	</g>
	<g>
		<g>
			<path fill="#8d949e"
				d="M19.523,38.19c-0.251,0-0.502-0.094-0.696-0.282c-0.593-0.575-1.271-1.059-1.989-1.572    c-0.885-0.631-1.8-1.284-2.592-2.146c-0.374-0.407-0.347-1.039,0.06-1.413c0.407-0.374,1.04-0.347,1.413,0.06    c0.651,0.708,1.442,1.273,2.281,1.872c0.747,0.533,1.52,1.084,2.22,1.764c0.396,0.385,0.406,1.018,0.021,1.414    C20.045,38.089,19.784,38.19,19.523,38.19z">
			</path>
		</g>
	</g>
	<g>
		<g>
			<path fill="#8d949e"
				d="M30.335,34.082c-0.509,0-0.944-0.387-0.994-0.904c-0.084-0.868-0.418-1.758-0.771-2.7    c-0.528-1.41-1.126-3.007-0.959-4.841c0.05-0.55,0.543-0.943,1.087-0.905c0.55,0.05,0.955,0.537,0.905,1.087    c-0.126,1.379,0.343,2.631,0.84,3.957c0.383,1.022,0.779,2.079,0.888,3.209c0.053,0.549-0.349,1.038-0.899,1.091    C30.399,34.081,30.367,34.082,30.335,34.082z">
			</path>
		</g>
	</g>
	<g>
		<g>
			<path fill="#8d949e"
				d="M42.662,31.486c-0.223,0-0.446-0.074-0.632-0.226c-0.428-0.349-0.491-0.979-0.142-1.407    c0.584-0.715,0.391-2.916,0.236-4.685c-0.144-1.635-0.292-3.326-0.006-4.627c0.118-0.54,0.653-0.879,1.191-0.763    c0.54,0.119,0.881,0.652,0.763,1.191c-0.22,1.004-0.085,2.54,0.044,4.025c0.215,2.458,0.418,4.78-0.68,6.125    C43.239,31.361,42.951,31.486,42.662,31.486z">
			</path>
		</g>
	</g>
	<g>
		<g>
			<path fill="#8d949e"
				d="M62.775,32.352c-0.055,0-0.111-0.004-0.168-0.014c-0.544-0.092-0.911-0.608-0.819-1.153    c0.177-1.044,0.256-2.097,0.34-3.211c0.075-0.992,0.152-2.019,0.305-3.042c0.082-0.546,0.59-0.922,1.137-0.841    c0.546,0.082,0.923,0.591,0.841,1.137c-0.142,0.95-0.216,1.939-0.289,2.896c-0.083,1.111-0.17,2.259-0.363,3.395    C63.678,32.006,63.254,32.352,62.775,32.352z">
			</path>
		</g>
	</g>
</svg>